<svg xmlns="http://www.w3.org/2000/svg" xmlns:xlink="http://www.w3.org/1999/xlink" width="1920" zoomAndPan="magnify" viewBox="0 0 1440 562.499983" height="750" preserveAspectRatio="xMidYMid meet" version="1.0"><defs><g/><clipPath id="723a2ad5e0"><path d="M 1312 23 L 1408 23 L 1408 117 L 1312 117 Z M 1312 23 " clip-rule="nonzero"/></clipPath><clipPath id="c4e4e4abcc"><path d="M 1292.960938 44.738281 L 1354.207031 -22.429688 L 1454.957031 69.441406 L 1393.710938 136.605469 Z M 1292.960938 44.738281 " clip-rule="nonzero"/></clipPath><clipPath id="579a68e998"><path d="M 1292.960938 44.738281 L 1354.207031 -22.429688 L 1454.957031 69.441406 L 1393.710938 136.605469 Z M 1292.960938 44.738281 " clip-rule="nonzero"/></clipPath><clipPath id="65d569f5fd"><path d="M 1282 76 L 1381 76 L 1381 169 L 1282 169 Z M 1282 76 " clip-rule="nonzero"/></clipPath><clipPath id="a148124f19"><path d="M 1399.25 142.304688 L 1342.234375 211.851562 L 1238.289062 126.628906 L 1295.308594 57.085938 Z M 1399.25 142.304688 " clip-rule="nonzero"/></clipPath><clipPath id="fe706702ef"><path d="M 1399.25 142.304688 L 1342.234375 211.851562 L 1238.289062 126.628906 L 1295.308594 57.085938 Z M 1399.25 142.304688 " clip-rule="nonzero"/></clipPath></defs><g fill="#ffffff" fill-opacity="1"><g transform="translate(13.450327, 492.827349)"><g><path d="M 225.953125 -43.375 C 231.671875 -36.3125 233.941406 -29.5 232.765625 -22.9375 C 231.585938 -16.382812 228.390625 -10.921875 223.171875 -6.546875 C 217.960938 -2.179688 212 0 205.28125 0 C 196.195312 0 188.460938 -3.695312 182.078125 -11.09375 L 96.84375 -105.921875 L 82.203125 -92.796875 L 82.203125 -25.71875 C 82.203125 -17.3125 79.09375 -10.921875 72.875 -6.546875 C 66.65625 -2.179688 60.015625 0 52.953125 0 C 45.554688 0 39 -2.179688 33.28125 -6.546875 C 27.570312 -10.921875 24.71875 -17.3125 24.71875 -25.71875 L 24.71875 -300.59375 C 24.71875 -309.34375 27.570312 -315.816406 33.28125 -320.015625 C 39 -324.222656 45.722656 -326.328125 53.453125 -326.328125 C 61.191406 -326.328125 67.914062 -324.222656 73.625 -320.015625 C 79.34375 -315.816406 82.203125 -309.34375 82.203125 -300.59375 L 82.203125 -161.390625 L 175.515625 -248.65625 C 181.898438 -254.03125 188.960938 -256.71875 196.703125 -256.71875 C 204.773438 -256.71875 211.664062 -254.109375 217.375 -248.890625 C 223.09375 -243.679688 225.953125 -237.71875 225.953125 -231 C 225.953125 -224.601562 222.421875 -218.046875 215.359375 -211.328125 L 136.171875 -141.21875 Z M 225.953125 -43.375 "/></g></g></g><g fill="#ffffff" fill-opacity="1"><g transform="translate(242.90359, 492.827349)"><g><path d="M 144.25 -261.765625 C 171.144531 -261.765625 194.679688 -256.128906 214.859375 -244.859375 C 235.035156 -233.597656 250.671875 -217.878906 261.765625 -197.703125 C 272.859375 -177.535156 278.40625 -154 278.40625 -127.09375 C 278.070312 -100.875 272.269531 -77.84375 261 -58 C 249.738281 -38.164062 234.101562 -22.695312 214.09375 -11.59375 C 194.09375 -0.5 170.8125 5.046875 144.25 5.046875 C 118.019531 5.046875 94.816406 -0.5 74.640625 -11.59375 C 54.472656 -22.695312 38.753906 -38.164062 27.484375 -58 C 16.222656 -77.84375 10.425781 -100.875 10.09375 -127.09375 C 10.09375 -154 15.722656 -177.535156 26.984375 -197.703125 C 38.242188 -217.878906 53.960938 -233.597656 74.140625 -244.859375 C 94.316406 -256.128906 117.6875 -261.765625 144.25 -261.765625 Z M 144.25 -45.390625 C 167.113281 -45.390625 185.351562 -52.953125 198.96875 -68.078125 C 212.582031 -83.210938 219.390625 -102.882812 219.390625 -127.09375 C 219.390625 -151.976562 212.582031 -172.238281 198.96875 -187.875 C 185.351562 -203.507812 167.113281 -211.328125 144.25 -211.328125 C 121.71875 -211.328125 103.554688 -203.507812 89.765625 -187.875 C 75.984375 -172.238281 69.09375 -151.976562 69.09375 -127.09375 C 69.09375 -102.882812 75.984375 -83.210938 89.765625 -68.078125 C 103.554688 -52.953125 121.71875 -45.390625 144.25 -45.390625 Z M 144.25 -45.390625 "/></g></g></g><g fill="#ffffff" fill-opacity="1"><g transform="translate(522.786891, 492.827349)"><g><path d="M 235.03125 -326.328125 C 242.09375 -326.328125 248.734375 -324.304688 254.953125 -320.265625 C 261.171875 -316.234375 264.28125 -309.847656 264.28125 -301.109375 L 264.28125 -25.71875 C 264.28125 -8.570312 254.53125 0 235.03125 0 C 217.550781 0 208.472656 -8.066406 207.796875 -24.203125 C 197.035156 -14.796875 184.929688 -7.648438 171.484375 -2.765625 C 158.035156 2.109375 145.257812 4.546875 133.15625 4.546875 C 107.9375 4.546875 86.160156 -1.164062 67.828125 -12.59375 C 49.503906 -24.03125 35.46875 -40.003906 25.71875 -60.515625 C 15.96875 -81.035156 11.09375 -104.578125 11.09375 -131.140625 C 11.09375 -156.691406 16.300781 -179.21875 26.71875 -198.71875 C 37.144531 -218.21875 51.6875 -233.597656 70.34375 -244.859375 C 89.007812 -256.128906 110.617188 -261.765625 135.171875 -261.765625 C 146.265625 -261.765625 158.195312 -259.578125 170.96875 -255.203125 C 183.75 -250.835938 195.6875 -244.28125 206.78125 -235.53125 L 206.78125 -301.109375 C 206.78125 -309.847656 209.722656 -316.234375 215.609375 -320.265625 C 221.492188 -324.304688 227.96875 -326.328125 235.03125 -326.328125 Z M 134.65625 -46.40625 C 151.46875 -46.40625 166.679688 -50.1875 180.296875 -57.75 C 193.921875 -65.3125 203.085938 -76.320312 207.796875 -90.78125 L 207.296875 -168.453125 C 201.578125 -182.242188 192.242188 -192.753906 179.296875 -199.984375 C 166.347656 -207.210938 152.984375 -210.828125 139.203125 -210.828125 C 118.015625 -210.828125 100.945312 -203.175781 88 -187.875 C 75.0625 -172.570312 68.59375 -153.488281 68.59375 -130.625 C 68.59375 -106.082031 74.644531 -85.910156 86.75 -70.109375 C 98.851562 -54.304688 114.820312 -46.40625 134.65625 -46.40625 Z M 134.65625 -46.40625 "/></g></g></g><g fill="#ffffff" fill-opacity="1"><g transform="translate(814.779186, 492.827349)"><g/></g></g><g fill="#ffffff" fill-opacity="1"><g transform="translate(933.286371, 492.827349)"><g/></g></g><g fill="#ffffff" fill-opacity="1"><g transform="translate(1051.793557, 492.827349)"><g/></g></g><g fill="#ffffff" fill-opacity="1"><g transform="translate(1170.300742, 492.827349)"><g/></g></g><g fill="#ffffff" fill-opacity="1"><g transform="translate(1288.807927, 492.827349)"><g/></g></g><g clip-path="url(#723a2ad5e0)"><g clip-path="url(#c4e4e4abcc)"><g clip-path="url(#579a68e998)"><path fill="#ffffff" d="M 1405.476562 23.953125 L 1324.03125 27.292969 C 1308.300781 27.9375 1308.269531 58.691406 1326.878906 57.605469 L 1377.480469 54.652344 L 1377.976562 105.78125 C 1378.125 121.351562 1408.433594 120.402344 1407.949219 104.605469 Z M 1405.476562 23.953125 " fill-opacity="1" fill-rule="nonzero"/></g></g></g><g clip-path="url(#65d569f5fd)"><g clip-path="url(#a148124f19)"><g clip-path="url(#fe706702ef)"><path fill="#ffffff" d="M 1289.394531 168.648438 L 1369.527344 161.125 C 1385.003906 159.671875 1383.441406 129.347656 1365.148438 131.382812 L 1315.402344 136.925781 L 1312.261719 86.53125 C 1311.308594 71.1875 1281.46875 73.695312 1282.769531 89.246094 Z M 1289.394531 168.648438 " fill-opacity="1" fill-rule="nonzero"/></g></g></g><g fill="#ffffff" fill-opacity="1"><g transform="translate(789.132218, 472.068756)"><g><path d="M 225.9375 -43.375 C 231.644531 -36.3125 233.910156 -29.5 232.734375 -22.9375 C 231.554688 -16.382812 228.363281 -10.921875 223.15625 -6.546875 C 217.945312 -2.179688 211.976562 0 205.25 0 C 196.175781 0 188.445312 -3.695312 182.0625 -11.09375 L 96.828125 -105.90625 L 82.203125 -92.796875 L 82.203125 -25.71875 C 82.203125 -17.3125 79.09375 -10.921875 72.875 -6.546875 C 66.65625 -2.179688 60.015625 0 52.953125 0 C 45.554688 0 39 -2.179688 33.28125 -6.546875 C 27.570312 -10.921875 24.71875 -17.3125 24.71875 -25.71875 L 24.71875 -300.5625 C 24.71875 -309.3125 27.570312 -315.785156 33.28125 -319.984375 C 39 -324.191406 45.722656 -326.296875 53.453125 -326.296875 C 61.191406 -326.296875 67.914062 -324.191406 73.625 -319.984375 C 79.34375 -315.785156 82.203125 -309.3125 82.203125 -300.5625 L 82.203125 -161.375 L 175.5 -248.625 C 181.882812 -254 188.945312 -256.6875 196.6875 -256.6875 C 204.75 -256.6875 211.640625 -254.082031 217.359375 -248.875 C 223.078125 -243.664062 225.9375 -237.695312 225.9375 -230.96875 C 225.9375 -224.582031 222.40625 -218.03125 215.34375 -211.3125 L 136.171875 -141.203125 Z M 225.9375 -43.375 "/></g></g></g><g fill="#ffffff" fill-opacity="1"><g transform="translate(1018.527819, 472.068756)"><g><path d="M 46.390625 -341.921875 C 55.140625 -341.921875 63.210938 -338.976562 70.609375 -333.09375 C 78.003906 -327.207031 81.703125 -319.5625 81.703125 -310.15625 C 81.703125 -298.71875 78.003906 -290.476562 70.609375 -285.4375 C 63.210938 -280.394531 55.140625 -277.875 46.390625 -277.875 C 37.316406 -277.875 29.164062 -280.898438 21.9375 -286.953125 C 14.707031 -293.003906 11.09375 -300.738281 11.09375 -310.15625 C 11.09375 -319.5625 14.707031 -327.207031 21.9375 -333.09375 C 29.164062 -338.976562 37.316406 -341.921875 46.390625 -341.921875 Z M 17.65625 -231.984375 C 17.65625 -240.054688 20.765625 -246.191406 26.984375 -250.390625 C 33.203125 -254.585938 39.671875 -256.6875 46.390625 -256.6875 C 53.453125 -256.6875 60.007812 -254.585938 66.0625 -250.390625 C 72.113281 -246.191406 75.140625 -240.222656 75.140625 -232.484375 L 75.140625 -24.71875 C 75.140625 -16.3125 72.113281 -10.085938 66.0625 -6.046875 C 60.007812 -2.015625 53.453125 0 46.390625 0 C 39.671875 0 33.203125 -2.015625 26.984375 -6.046875 C 20.765625 -10.085938 17.65625 -16.3125 17.65625 -24.71875 Z M 17.65625 -231.984375 "/></g></g></g><g fill="#ffffff" fill-opacity="1"><g transform="translate(1100.701974, 472.068756)"><g><path d="M 138.6875 -47.90625 C 146.414062 -52.28125 153.390625 -53.796875 159.609375 -52.453125 C 165.828125 -51.109375 170.867188 -48.164062 174.734375 -43.625 C 178.609375 -39.082031 180.546875 -33.785156 180.546875 -27.734375 C 180.546875 -23.367188 179.195312 -19 176.5 -14.625 C 173.8125 -10.25 169.613281 -6.550781 163.90625 -3.53125 C 156.507812 0.5 149.785156 2.9375 143.734375 3.78125 C 137.679688 4.625 130.617188 5.046875 122.546875 5.046875 C 100.691406 5.046875 83.878906 0.507812 72.109375 -8.5625 C 60.347656 -17.644531 52.28125 -29.414062 47.90625 -43.875 C 43.539062 -58.332031 41.359375 -73.628906 41.359375 -89.765625 L 41.359375 -208.78125 L 22.1875 -208.78125 C 12.769531 -208.78125 5.789062 -211.300781 1.25 -216.34375 C -3.28125 -221.394531 -5.546875 -226.773438 -5.546875 -232.484375 C -5.546875 -238.535156 -3.191406 -244.082031 1.515625 -249.125 C 6.222656 -254.164062 13.113281 -256.6875 22.1875 -256.6875 L 41.359375 -256.6875 L 41.359375 -300.0625 C 41.359375 -308.800781 44.210938 -315.359375 49.921875 -319.734375 C 55.640625 -324.109375 62.195312 -326.296875 69.59375 -326.296875 C 76.65625 -326.296875 83.210938 -324.109375 89.265625 -319.734375 C 95.316406 -315.359375 98.34375 -308.800781 98.34375 -300.0625 L 98.34375 -256.6875 L 137.671875 -256.6875 C 146.421875 -256.6875 153.144531 -254.164062 157.84375 -249.125 C 162.550781 -244.082031 164.90625 -238.535156 164.90625 -232.484375 C 164.90625 -226.429688 162.550781 -220.96875 157.84375 -216.09375 C 153.144531 -211.21875 146.421875 -208.78125 137.671875 -208.78125 L 98.34375 -208.78125 L 98.34375 -89.765625 C 98.34375 -82.367188 98.84375 -75.222656 99.84375 -68.328125 C 100.851562 -61.441406 103.125 -55.726562 106.65625 -51.1875 C 110.1875 -46.644531 115.484375 -44.375 122.546875 -44.375 C 125.234375 -44.375 128.175781 -44.796875 131.375 -45.640625 C 134.570312 -46.484375 137.007812 -47.238281 138.6875 -47.90625 Z M 138.6875 -47.90625 "/></g></g></g></svg>